<?xml version="1.0" encoding="utf-8"?>
<svg viewBox="0 0 500 500" xmlns="http://www.w3.org/2000/svg" xmlns:xlink="http://www.w3.org/1999/xlink">
  <defs>
    <path id="text-path-0" d="M 233.695 441.765 C 236.16 437.515 178.056 433.129 133.757 394.177 C 92.901 358.253 76.81 312.768 71.196 280.645 C 51.997 170.791 142.159 101.037 171.48 85.675 C 207.703 66.697 253.694 62.353 284.959 66.775 C 354.483 76.607 434.042 134.725 441.315 236.939 C 445.441 294.92 424.754 338.784 387.561 384.868 C 362.071 416.452 283.836 439.279 256.721 441.764" style="fill: none; stroke: red; stroke-width: 2;"/>
    <style id="bx-google-fonts">@import url(https://fonts.googleapis.com/css?family=Bowlby+One:400);</style>
    <pattern id="pattern-0" x="0" y="0" width="20" height="20" patternUnits="userSpaceOnUse" viewBox="0 0 100 100">
      <path d="M 0 0 L 50 0 L 50 100 L 0 100 Z" style="fill: black;"/>
    </pattern>
    <path id="text-path-1" d="M 196.936 134.44 C 226.781 41.048 293.253 -13.913 386.542 -4.36 C 498.704 7.126 546.349 112.198 541.718 175.916 C 537.224 237.753 503.919 306.395 436.203 329.315 C 365.779 353.151 272.347 329.294 238.722 275.499 C 204.572 220.863 200.628 169.499 200.273 148.645" style="fill: none; stroke: red; stroke-width: 2;"/>
  </defs>
  <ellipse transform="matrix(-0.731608, 0.681726, -0.681726, -0.731608, 327.530268, 260.538029)" cx="44.446" cy="59.704" rx="239.38" ry="239.38" style="fill: rgb(112, 236, 166);"/>
  <g transform="matrix(0.875775, 0, 0, 0.875775, 33.122623, 37.145157)">
    <path d="M 193.935 212.761 C 166.23 243.618 152.434 290.672 173.475 299.675 C 190.318 306.882 193.434 280.363 199.597 262.945 C 212.087 227.647 264.593 236.605 280.075 255.282 C 299.858 279.147 285.727 331.083 268.285 351.775 C 252.307 370.729 205.512 400.741 161.043 392.667 C 124.366 386.007 88.662 346.421 78.485 314.852 C 57.718 250.429 100.43 154.558 100.43 154.558 C 100.43 154.558 68.224 117.328 104.856 93.108 C 140.122 69.791 165.46 115.206 165.46 115.206 C 165.46 115.206 194.11 91.497 225.422 87.769 C 288.614 80.245 319.967 104.559 319.967 104.559 C 319.967 104.559 323.734 66.53 371.062 79.776 C 411.068 90.973 390.486 135.476 390.486 135.476 C 390.486 135.476 423.872 168.029 434.375 199.403 C 464.991 290.855 410.683 378.34 386.313 398.832 C 365.716 416.151 322.306 411.204 310.245 375.145 C 299.093 341.806 339.906 320.134 342.997 275.796 C 345.012 246.902 327.967 220.407 315.467 210.075 C 281.765 182.218 215.28 188.988 193.935 212.761 Z" style="fill: rgb(245, 244, 231);"/>
  </g>
  <text transform="matrix(1, 0, 0, 1, -115.313271, 81.053535)" style="fill: rgb(245, 244, 231); font-family: &quot;Bowlby One&quot;; font-size: 100px; font-weight: 900; white-space: pre;"><textPath xlink:href="#text-path-1">- - - - - - - - - - - - - - -</textPath></text>
</svg>