<?xml version="1.0" encoding="utf-8"?>
<svg viewBox="0 0 500 500" xmlns="http://www.w3.org/2000/svg" xmlns:xlink="http://www.w3.org/1999/xlink">
  <defs>
    <style id="bx-google-fonts">@import url(https://fonts.googleapis.com/css?family=Hind+Siliguri:300,400,500,600,700);</style>
    <path id="text-path-0" d="M 233.695 441.765 C 236.16 437.515 178.056 433.129 133.757 394.177 C 92.901 358.253 76.81 312.768 71.196 280.645 C 51.997 170.791 142.159 101.037 171.48 85.675 C 207.703 66.697 253.694 62.353 284.959 66.775 C 354.483 76.607 434.042 134.725 441.315 236.939 C 445.441 294.92 424.754 338.784 387.561 384.868 C 362.071 416.452 283.836 439.279 256.721 441.764" style="fill: none; stroke: red; stroke-width: 2;"/>
  </defs>
  <ellipse transform="matrix(-0.731608, 0.681726, -0.681726, -0.731608, 327.530268, 260.538029)" cx="44.446" cy="59.704" rx="239.38" ry="239.38" style="fill: rgb(224, 221, 66);"/>
  <g transform="matrix(0.875775, 0, 0, 0.875775, 33.122623, 37.145157)">
    <ellipse cx="254.178" cy="244.986" rx="201.798" ry="201.798" style="fill: rgb(43, 78, 13);"/>
    <path d="M 251.945 345.884 C 230.738 345.755 207.856 358.81 181.207 367.751 C 162.406 374.06 144.878 386.402 126.36 375.675 C 106.535 364.192 102.449 343.901 112.232 327.173 C 129.049 298.418 149.047 295.465 173.767 278.564 C 190.671 267.009 204.729 251.885 213.232 237.568 C 223.13 220.9 233.426 207.82 253.87 206.603 C 276.479 205.258 291.148 220.334 296.393 233.861 C 303.346 251.795 317.305 266.646 329.479 276.489 C 356.329 298.198 376.428 289.157 397.455 322.304 C 410.954 343.583 402.074 369.681 376.799 378.785 C 361.398 384.332 339.196 373.921 326.626 366.346 C 300.181 350.41 283.777 346.078 251.945 345.884 Z" style="fill: rgb(224, 221, 66);"/>
    <path d="M 397.301 174.03 C 377.381 167.708 360.157 181.206 352.988 202.508 C 343.183 231.637 342.453 273.32 368.623 278.706 C 395.82 284.302 414.859 251.048 421.331 221.387 C 426.155 199.274 417.656 180.49 397.301 174.03 Z" style="fill: rgb(224, 221, 66);"/>
    <path d="M 138.976 276.172 C 118.562 282.269 100.912 269.252 93.565 248.712 C 83.518 220.622 82.769 180.428 109.588 175.235 C 137.457 169.838 156.968 201.904 163.6 230.506 C 168.544 251.83 159.835 269.943 138.976 276.172 Z" style="fill: rgb(224, 221, 66);" transform="matrix(-1, 0, 0, -1, 252.088238, 452.317028)"/>
    <path d="M 322.833 92.606 C 303.41 87.206 285.652 101.638 279.634 122.055 C 270.717 152.306 277.084 196.087 302.102 201.655 C 328.102 207.442 344.632 166.61 348.312 140.772 C 351.599 117.693 343.963 98.481 322.833 92.606 Z" style="fill: rgb(224, 221, 66);"/>
    <path d="M 211.991 200.681 C 192.409 206.161 174.506 191.513 168.439 170.788 C 159.449 140.082 165.868 95.638 191.091 89.986 C 217.303 84.112 233.969 125.561 237.679 151.788 C 240.993 175.216 233.294 194.718 211.991 200.681 Z" style="fill: rgb(224, 221, 66);" transform="matrix(-1, 0, 0, -1, 403.004057, 291.26145)"/>
  </g>
  <text transform="matrix(1.005167, 0, 0, 1.001738, -1.570998, -0.859643)" style="fill: rgb(111, 110, 68); font-family: &quot;Hind Siliguri&quot;; font-size: 50px; font-weight: 800; letter-spacing: 20.3946px; word-spacing: 4.9743px; white-space: pre;"><textPath xlink:href="#text-path-0">JAPARIPARK JAPARIPARK</textPath></text>
</svg>